<svg width="19" height="10" viewBox="0 0 19 10" fill="none" xmlns="http://www.w3.org/2000/svg">
<path d="M9.32944 0.00749503C8.95579 0.0427323 8.60244 0.190376 8.31807 0.429832L0.681162 6.83311C0.296849 7.13436 0.0540907 7.57533 0.00793283 8.05494C-0.0379828 8.53461 0.116758 9.01201 0.437145 9.37778C0.757278 9.74379 1.21564 9.96712 1.70704 9.99665C2.19865 10.0262 2.6814 9.85942 3.04512 9.53461L9.5 4.1206L15.9549 9.53461C16.3186 9.85943 16.8014 10.0262 17.293 9.99665C17.7843 9.96712 18.2427 9.74379 18.5629 9.37778C18.8832 9.01202 19.038 8.53462 18.9921 8.05495C18.9459 7.57528 18.7031 7.13435 18.3188 6.83311L10.6819 0.429833C10.3083 0.115685 9.82018 -0.0366791 9.32963 0.00749503L9.32944 0.00749503Z" fill="#386CC5"/>
</svg>
