<svg width="80" height="80" viewBox="0 0 80 80" fill="none" xmlns="http://www.w3.org/2000/svg">
<path d="M80 40C80 62.1 62.1 80 40 80C17.9 80 0 62.1 0 40C0 17.9 17.9 0 40 0C62.1 0 80 17.9 80 40Z" fill="url(#paint0_linear_131_96)"/>
<path d="M32.6668 58.3332C31.3668 58.3332 31.6002 57.8332 31.1335 56.5999L27.3335 44.0666L50.9335 29.3333L53.7001 30.0666L51.4001 36.3333L32.6668 58.3332Z" fill="#C8DAEA"/>
<path d="M32.6665 58.3333C33.6665 58.3333 34.0998 57.8666 34.6665 57.3333C35.5332 56.5 46.6666 45.6667 46.6666 45.6667L39.8332 44L33.4998 48L32.6665 58V58.3333Z" fill="#A9C9DD"/>
<path d="M33.3331 48.1334L49.4664 60.0335C51.2997 61.0335 52.6331 60.5335 53.0998 58.3335L59.6664 27.4001C60.3331 24.7001 58.6331 23.5001 56.8664 24.3001L18.3331 39.1668C15.6998 40.2334 15.7331 41.7001 17.8665 42.3334L27.7664 45.4334L50.6664 31.0001C51.7331 30.3334 52.7331 30.7001 51.9331 31.4334L33.3331 48.1334Z" fill="url(#paint1_linear_131_96)"/>
<defs>
<linearGradient id="paint0_linear_131_96" x1="51.7233" y1="12.6433" x2="31.7233" y2="59.3093" gradientUnits="userSpaceOnUse">
<stop stop-color="#37AEE2"/>
<stop offset="1" stop-color="#1E96C8"/>
</linearGradient>
<linearGradient id="paint1_linear_131_96" x1="42.9968" y1="41.2518" x2="51.3301" y2="54.5851" gradientUnits="userSpaceOnUse">
<stop stop-color="#EFF7FC"/>
<stop offset="1" stop-color="white"/>
</linearGradient>
</defs>
</svg>
